<?xml version="1.0" encoding="UTF-8" standalone="no" ?>
<!DOCTYPE svg PUBLIC "-//W3C//DTD SVG 1.1//EN" "http://www.w3.org/Graphics/SVG/1.1/DTD/svg11.dtd">
<svg xmlns="http://www.w3.org/2000/svg" xmlns:xlink="http://www.w3.org/1999/xlink" version="1.1" width="150" height="69" viewBox="0 0 150 69" xml:space="preserve">
<desc>Created with Fabric.js 3.6.6</desc>
<defs>
</defs>
<g transform="matrix(0.25 0 0 0.25 33.28 29.33)"  >
<path style="stroke: rgb(0,0,0); stroke-width: 1; stroke-dasharray: none; stroke-linecap: butt; stroke-dashoffset: 0; stroke-linejoin: round; stroke-miterlimit: 4; fill: none; fill-rule: nonzero; opacity: 1;" vector-effect="non-scaling-stroke"  transform=" translate(-133, -192)" d="M 68.5 263 Q 128.5 205 105.5 126 L 142.5 186 L 159.5 121 Q 152.5 267 197.5 252" stroke-linecap="round" />
</g>
<g transform="matrix(0.24 -0.03 0.03 0.24 51.68 32.88)"  >
<path style="stroke: rgb(0,0,0); stroke-width: 1; stroke-dasharray: none; stroke-linecap: butt; stroke-dashoffset: 0; stroke-linejoin: round; stroke-miterlimit: 4; fill: none; fill-rule: nonzero; opacity: 1;" vector-effect="non-scaling-stroke"  transform=" translate(-235.93, -214.56)" d="M 215.5 169 Q 210.5 269 258.5 251" stroke-linecap="round" />
</g>
<g transform="matrix(-0.25 0 0 -0.25 76.89 28.35)"  >
<path style="stroke: rgb(0,0,0); stroke-width: 1; stroke-dasharray: none; stroke-linecap: butt; stroke-dashoffset: 0; stroke-linejoin: round; stroke-miterlimit: 4; fill: none; fill-rule: nonzero; opacity: 1;" vector-effect="non-scaling-stroke"  transform=" translate(-133, -192)" d="M 68.5 263 Q 128.5 205 105.5 126 L 142.5 186 L 159.5 121 Q 152.5 267 197.5 252" stroke-linecap="round" />
</g>
<g transform="matrix(0.16 0 0 0.16 93.83 36.16)"  >
<path style="stroke: rgb(0,0,0); stroke-width: 1; stroke-dasharray: none; stroke-linecap: butt; stroke-dashoffset: 0; stroke-linejoin: miter; stroke-miterlimit: 4; fill: none; fill-rule: nonzero; opacity: 1;" vector-effect="non-scaling-stroke"  transform=" translate(-404.42, -201.05)" d="M 448.5 209 Q 397.5 294 365.5 209 Q 439.5 205 433.5 144 Q 406.5 125 388.5 141 Q 356.5 167 365.5 209" stroke-linecap="round" />
</g>
<g transform="matrix(0.25 -0.01 0.01 0.25 106.9 25.65)"  >
<path style="stroke: rgb(0,0,0); stroke-width: 1; stroke-dasharray: none; stroke-linecap: butt; stroke-dashoffset: 0; stroke-linejoin: round; stroke-miterlimit: 4; fill: none; fill-rule: nonzero; opacity: 1;" vector-effect="non-scaling-stroke"  transform=" translate(-456.63, -172)" d="M 446.5 100 Q 476.5 200 444.5 244" stroke-linecap="round" />
</g>
<g transform="matrix(0.25 0 0 0.25 114.14 34.41)"  >
<path style="stroke: rgb(0,0,0); stroke-width: 1; stroke-dasharray: none; stroke-linecap: butt; stroke-dashoffset: 0; stroke-linejoin: round; stroke-miterlimit: 4; fill: none; fill-rule: nonzero; opacity: 1;" vector-effect="non-scaling-stroke"  transform=" translate(-482.08, -217.69)" d="M 447.5 246 Q 503.5 268 514.5 212 Q 519.5 179 491.5 176 Q 464.5 175 460.5 200 Q 446.5 260 447.5 246" stroke-linecap="round" />
</g>
<g transform="matrix(0.25 0 0 0.25 75.79 51.31)"  >
<path style="stroke: rgb(0,0,0); stroke-width: 1; stroke-dasharray: none; stroke-linecap: butt; stroke-dashoffset: 0; stroke-linejoin: round; stroke-miterlimit: 4; fill: none; fill-rule: nonzero; opacity: 1;" vector-effect="non-scaling-stroke"  transform=" translate(-306, -280.44)" d="M 34.5 317 Q 291.5 220 577.5 314" stroke-linecap="round" />
</g>
<g transform="matrix(0.02 0 0 0.02 46.5 15.84)"  >
<path style="stroke: none; stroke-width: 1; stroke-dasharray: none; stroke-linecap: butt; stroke-dashoffset: 0; stroke-linejoin: round; stroke-miterlimit: 4; fill: rgb(0,0,0); fill-rule: nonzero; opacity: 1;" vector-effect="non-scaling-stroke"  transform=" translate(-209.57, -201.8)" d="m 281.78 0 c -0.88 0.011256 -1.79 0.054519 -2.69 0.125 c -35.82 6.1835 -55.52 44.064 -58.37 77.469 c -4.17 30.316 9.19 69.266 42.47 76.066 c 4.83 0.92 9.84 0.5 14.56 -0.78 c 40.08 -13.44 58.01 -60.908 52.22 -100.22 c -1.69 -25.396 -20.83 -53.009 -48.19 -52.66 z m -151.87 1.625 c -22.28 0.5468 -39.63 23.138 -43.16 44.375 c -7.441 42.074 11.698 94.35 55.53 107.66 c 4.11 0.89 8.35 0.98 12.5 0.34 c 29.63 -4.94 42.18 -38.15 40.94 -64.969 c -0.89 -35.372 -19.27 -76.273 -56 -86.218 c -3.36 -0.8909 -6.63 -1.2661 -9.81 -1.188 z m 248.93 119.5 c -38.53 2.31 -64.95 40.76 -68.72 76.66 c -5.09 25.89 8.71 60.53 38.26 62.6 c 41.19 -0.51 69.3 -44.53 70.46 -82.41 c 2.61 -25.05 -12.15 -55.46 -40 -56.85 z m -337.28 8.54 c -16.394 -0.14 -32.517 9.68 -37.874 26.34 c -14.293 44.58 14.408 101.04 61.624 110.41 c 19.706 3.37 37.018 -11.76 41.908 -29.97 c 10.35 -38.95 -10.915 -84.17 -46.908 -101.85 c -5.863 -3.29 -12.334 -4.88 -18.75 -4.93 z m 172.75 79.93 c -32.14 0.07 -64.78 16.38 -85.59 40.66 c -22.48 28.3 -40.892 61.23 -48.095 96.94 c -8.751 25.7 11.083 55.29 38.565 55.47 c 33.06 0.91 61.47 -21.79 94.34 -23.47 c 27.89 -4.25 52.86 10.25 77.94 19.75 c 21.35 9.13 50.85 5.63 61.75 -17.35 c 8.57 -23.41 -4.05 -48.39 -14.5 -69.18 c -21.32 -33.76 -44.17 -69.24 -79.13 -90.32 c -14.01 -8.68 -29.58 -12.53 -45.28 -12.5 z" stroke-linecap="round" />
</g>
</svg>